HIERARCHY
ROOT Hips
{
	OFFSET 45.262299 -9.669207 98.318100
	CHANNELS 6 Xposition Yposition Zposition Xrotation Yrotation Zrotation
	JOINT spine
	{
		OFFSET 0.000000 -0.477352 8.301033
		CHANNELS 3 Xrotation Yrotation Zrotation
		JOINT spine1
		{
			OFFSET 0.000000 -0.000002 10.456497
			CHANNELS 3 Xrotation Yrotation Zrotation
			JOINT spine2
			{
				OFFSET 0.000000 -0.000002 10.019203
				CHANNELS 3 Xrotation Yrotation Zrotation
				JOINT Neck
				{
					OFFSET 0.000000 -1.226414 25.723495
					CHANNELS 3 Xrotation Yrotation Zrotation
					JOINT Head
					{
						OFFSET 0.000000 -0.000001 7.771744
						CHANNELS 3 Xrotation Yrotation Zrotation
						End Site
						{
							OFFSET 0.000000 6.203937 18.811996
						}
					}
				}
				JOINT RightShoulder
				{
					OFFSET -4.218800 0.587437 10.819992
					CHANNELS 3 Xrotation Yrotation Zrotation
					JOINT RightArm
					{
						OFFSET 0.000000 -0.000002 14.191406
						CHANNELS 3 Xrotation Yrotation Zrotation
						JOINT RightArmRoll
						{
							OFFSET 0.000000 -0.000001 7.164093
							CHANNELS 3 Xrotation Yrotation Zrotation
							JOINT RightForeArm
							{
								OFFSET 0.000000 -0.000004 20.866501
								CHANNELS 3 Xrotation Yrotation Zrotation
								JOINT RightForeArmRoll
								{
									OFFSET 0.000000 -0.000001 8.039215
									CHANNELS 3 Xrotation Yrotation Zrotation
									JOINT RightHand
									{
										OFFSET 0.000000 -0.000003 16.132996
										CHANNELS 3 Xrotation Yrotation Zrotation
										End Site
										{
											OFFSET 0.000000 0.000000 0.100006
										}
									}
								}
							}
						}
					}
				}
				JOINT LeftShoulder
				{
					OFFSET 4.218800 0.587437 10.819992
					CHANNELS 3 Xrotation Yrotation Zrotation
					JOINT LeftArm
					{
						OFFSET 0.000000 -0.000002 14.191406
						CHANNELS 3 Xrotation Yrotation Zrotation
						JOINT LeftArmRoll
						{
							OFFSET 0.000000 -0.000001 7.164093
							CHANNELS 3 Xrotation Yrotation Zrotation
							JOINT LeftForeArm
							{
								OFFSET 0.000000 -0.000004 20.866501
								CHANNELS 3 Xrotation Yrotation Zrotation
								JOINT LeftForeArmRoll
								{
									OFFSET 0.000000 -0.000001 8.039215
									CHANNELS 3 Xrotation Yrotation Zrotation
									JOINT LeftHand
									{
										OFFSET 0.000000 -0.000003 16.132996
										CHANNELS 3 Xrotation Yrotation Zrotation
										End Site
										{
											OFFSET 0.000000 0.000000 0.100006
										}
									}
								}
							}
						}
					}
				}
			}
		}
	}
	JOINT RightUpLeg
	{
		OFFSET -7.357731 1.131810 -1.349213
		CHANNELS 3 Xrotation Yrotation Zrotation
		JOINT RightUpLegRoll
		{
			OFFSET 0.000000 -0.000003 18.916801
			CHANNELS 3 Xrotation Yrotation Zrotation
			JOINT RightLeg
			{
				OFFSET 0.000000 0.000004 -23.425598
				CHANNELS 3 Xrotation Yrotation Zrotation
				JOINT RightLegRoll
				{
					OFFSET 0.000000 -0.000004 23.502296
					CHANNELS 3 Xrotation Yrotation Zrotation
					JOINT RightFoot
					{
						OFFSET 0.000000 -0.000003 19.561707
						CHANNELS 3 Xrotation Yrotation Zrotation
						JOINT RightToeBase
						{
							OFFSET 0.000000 -0.000003 16.352600
							CHANNELS 3 Xrotation Yrotation Zrotation
							End Site
							{
								OFFSET 0.006931 0.912836 7.919434
							}
						}
					}
				}
			}
		}
	}
	JOINT LeftUpLeg
	{
		OFFSET 7.357731 1.131810 -1.349213
		CHANNELS 3 Xrotation Yrotation Zrotation
		JOINT LeftUpLegRoll
		{
			OFFSET 0.000000 -0.000003 18.916901
			CHANNELS 3 Xrotation Yrotation Zrotation
			JOINT LeftLeg
			{
				OFFSET 0.000000 -0.000004 23.425507
				CHANNELS 3 Xrotation Yrotation Zrotation
				JOINT LeftLegRoll
				{
					OFFSET 0.000000 -0.000004 23.719498
					CHANNELS 3 Xrotation Yrotation Zrotation
					JOINT LeftFoot
					{
						OFFSET 0.000000 -0.000003 19.344406
						CHANNELS 3 Xrotation Yrotation Zrotation
						JOINT LeftToeBase
						{
							OFFSET 0.000000 -0.000003 16.352600
							CHANNELS 3 Xrotation Yrotation Zrotation
							End Site
							{
								OFFSET -0.031063 0.912835 7.919434
							}
						}
					}
				}
			}
		}
	}
}
MOTION
Frames: 13
Frame Time: 0.041667
60.919601 -17.420820 98.160500 -3.992927 1.061880 104.543121 0.039513 0.231680 0.913914 4.073566 0.468165 1.834519 5.718311 0.490559 1.826189 8.400023 28.910142 -11.351821 4.231245 -32.180774 -9.440541 1.848302 -31.772049 6.537569 124.510141 2.301675 135.515803 -0.000001 -0.000000 -0.000001 28.489948 10.104730 0.299115 -0.000014 0.000004 -3.000001 -5.000041 -7.998915 -0.000004 -28.350602 67.167363 33.013825 -66.142213 95.547352 59.994230 0.000001 -0.000009 0.000005 47.539722 11.546171 -3.484307 -0.000002 -0.000001 3.000011 -5.000147 7.998954 -0.000140 0.223836 -178.410019 7.438102 -179.999991 0.000005 -1.661999 141.022766 -6.032322 -3.698207 -0.000003 -0.000002 0.685506 67.007523 6.810010 2.466314 25.456800 -7.356321 -0.000002 -16.437586 175.935578 3.994871 -0.000003 -0.000005 -0.936382 -18.902202 1.676762 1.358880 -0.000001 -0.000003 -0.315490 71.027725 -6.833825 -2.137310 25.456957 7.355617 -0.000002 
60.924500 -17.405516 98.157303 -3.948388 1.069328 104.558803 0.038441 0.229825 0.914173 4.070865 0.463876 1.835107 5.715598 0.486302 1.826489 8.484631 28.884843 -11.374248 4.156915 -32.153672 -9.463344 1.832230 -31.792581 6.511566 124.474979 2.278604 135.551333 -0.000003 -0.000001 -0.000001 28.554224 10.129811 0.299966 -0.000015 0.000003 -3.000001 -5.000044 -7.998916 -0.000005 -28.270851 67.181952 32.922977 -66.530332 95.401507 60.234776 0.000002 -0.000009 0.000003 47.212180 11.594394 -3.485614 -0.000008 -0.000001 3.000010 -5.000145 7.998953 -0.000141 0.240929 -178.402014 7.438499 -179.999991 0.000005 -1.662996 141.024897 -6.021538 -3.695222 -0.000001 -0.000002 0.685479 67.002906 6.809944 2.466486 25.456798 -7.356321 -0.000002 -16.443486 175.999030 4.021565 -0.000003 -0.000004 -0.936978 -18.931285 1.673737 1.360792 -0.000001 -0.000002 -0.316752 71.042082 -6.833697 -2.137007 25.456955 7.355615 0.000000 
60.936100 -17.385315 98.145996 -3.903821 1.076616 104.573461 0.037349 0.228012 0.914436 4.068152 0.459725 1.835663 5.712894 0.482158 1.826785 8.567098 28.858642 -11.395828 4.084128 -32.125457 -9.485623 1.815671 -31.815711 6.484399 124.436594 2.254246 135.583121 -0.000001 0.000002 -0.000001 28.616992 10.154014 0.301076 -0.000014 0.000004 -2.999999 -5.000041 -7.998910 -0.000004 -28.191959 67.195456 32.833177 -66.921128 95.258429 60.478122 0.000001 -0.000008 0.000004 46.889023 11.640838 -3.485663 -0.000005 -0.000001 3.000013 -5.000148 7.998954 -0.000140 0.257251 -178.392015 7.438899 -179.999991 0.000005 -1.664007 141.024815 -6.010568 -3.691471 -0.000004 -0.000003 0.685387 66.999668 6.809959 2.466490 25.456803 -7.356321 -0.000002 -16.445596 176.062415 4.046040 -0.000004 -0.000004 -0.937477 -18.954591 1.673209 1.362686 -0.000001 -0.000002 -0.317743 71.053119 -6.833608 -2.136915 25.456959 7.355613 -0.000001 
60.938702 -17.379215 98.131393 -3.859151 1.083607 104.587087 0.036293 0.226257 0.914701 4.065570 0.455772 1.836196 5.710310 0.478187 1.827075 8.646701 28.831379 -11.416364 4.013578 -32.095544 -9.507154 1.798629 -31.842045 6.456002 124.394793 2.228059 135.609731 -0.000003 0.000000 -0.000003 28.677847 10.177200 0.302405 -0.000014 0.000002 -3.000001 -5.000044 -7.998915 -0.000005 -28.114638 67.207053 32.745208 -67.305511 95.119052 60.714904 0.000001 -0.000009 0.000003 46.570818 11.685173 -3.484283 -0.000005 -0.000000 3.000013 -5.000142 7.998957 -0.000139 0.272746 -178.382029 7.439298 -179.999991 0.000005 -1.664007 141.021946 -5.999362 -3.689024 -0.000000 -0.000002 0.685217 66.998207 6.809983 2.466185 25.456801 -7.356331 0.000002 -16.443240 176.124720 4.068083 -0.000005 -0.000004 -0.937857 -18.971019 1.675693 1.364552 -0.000001 -0.000002 -0.318401 71.060346 -6.833521 -2.137155 25.456957 7.355615 0.000000 
60.949501 -17.356518 98.119797 -3.814312 1.090181 104.599682 0.035339 0.224582 0.914958 4.063268 0.452077 1.836685 5.708008 0.474442 1.827361 8.722725 28.802921 -11.435640 3.945954 -32.063896 -9.527558 1.781177 -31.872087 6.426349 124.349236 2.200564 135.631315 -0.000002 -0.000001 -0.000000 28.736433 10.198886 0.304080 -0.000014 0.000005 -3.000001 -5.000040 -7.998916 -0.000004 -28.039503 67.216322 32.659957 -67.675044 94.984237 60.936578 0.000002 -0.000009 0.000003 46.258040 11.727176 -3.481350 -0.000010 -0.000000 3.000012 -5.000143 7.998955 -0.000138 0.287373 -178.370021 7.439734 -179.999991 0.000005 -1.664007 141.015785 -5.988664 -3.686530 -0.000002 -0.000002 0.684953 66.998767 6.810123 2.465578 25.456788 -7.356331 0.000003 -16.435488 176.186929 4.086912 -0.000003 -0.000005 -0.938100 -18.979487 1.681708 1.366377 -0.000001 -0.000002 -0.318662 71.062962 -6.833384 -2.137874 25.456952 7.355619 -0.000001 
60.956100 -17.341215 98.117096 -3.769232 1.096177 104.611218 0.034544 0.223006 0.915210 4.061365 0.448697 1.837120 5.706105 0.470980 1.827632 8.794420 28.772920 -11.453420 3.881941 -32.029899 -9.546803 1.763303 -31.906221 6.395381 124.299758 2.171213 135.646205 -0.000000 0.000001 0.000000 28.792311 10.218844 0.306086 -0.000014 0.000001 -3.000000 -5.000043 -7.998916 -0.000006 -27.967803 67.222380 32.578708 -68.017005 94.854935 61.130289 0.000001 -0.000009 0.000001 45.951259 11.766536 -3.476707 -0.000005 -0.000003 3.000009 -5.000147 7.998956 -0.000139 0.301079 -178.357030 7.440193 -179.999991 0.000005 -1.664007 141.005786 -5.976874 -3.683818 -0.000001 -0.000002 0.684584 67.001745 6.810269 2.464824 25.456791 -7.356331 0.000002 -16.421568 176.248073 4.102343 -0.000004 -0.000004 -0.938181 -18.978787 1.691787 1.368145 -0.000001 -0.000003 -0.318461 71.060264 -6.833292 -2.139023 25.456953 7.355613 -0.000001 
60.964600 -17.321718 98.106789 -3.723819 1.101461 104.621689 0.033969 0.221550 0.915449 4.060014 0.445693 1.837504 5.704753 0.467852 1.827892 8.861053 28.741125 -11.469489 3.822250 -31.993446 -9.564725 1.745085 -31.945065 6.363059 124.245949 2.140011 135.653936 -0.000000 -0.000000 -0.000001 28.845043 10.236773 0.308462 -0.000015 -0.000001 -3.000001 -5.000040 -7.998911 -0.000003 -27.900454 67.224614 32.502575 -68.321453 94.731910 61.285901 -0.000000 -0.000009 0.000001 45.650925 11.802885 -3.470104 -0.000005 -0.000001 3.000011 -5.000147 7.998953 -0.000141 0.313814 -178.343028 7.440704 -179.999991 0.000004 -1.664008 140.991265 -5.964700 -3.680552 -0.000001 -0.000002 0.684094 67.007270 6.810547 2.463639 25.456795 -7.356342 0.000007 -16.400469 176.308124 4.113852 -0.000004 -0.000004 -0.938081 -18.967932 1.706462 1.369847 -0.000001 -0.000002 -0.317743 71.051705 -6.833188 -2.140732 25.456959 7.355613 -0.000000 
60.968102 -17.300915 98.091911 -3.678008 1.105869 104.631080 0.033668 0.220233 0.915675 4.059342 0.443126 1.837821 5.704078 0.465115 1.828144 8.921935 28.707507 -11.483646 3.767564 -31.954118 -9.580984 1.726528 -31.989116 6.329328 124.187702 2.107512 135.654414 -0.000001 -0.000001 -0.000003 28.894166 10.252281 0.311318 -0.000014 0.000004 -3.000000 -5.000041 -7.998911 -0.000004 -27.838154 67.222367 32.432385 -68.573979 94.616049 61.388893 0.000002 -0.000009 0.000006 45.357620 11.836037 -3.461572 -0.000010 -0.000002 3.000012 -5.000146 7.998954 -0.000140 0.325521 -178.327032 7.441284 -179.999991 0.000005 -1.664007 140.971853 -5.952123 -3.676806 -0.000000 -0.000003 0.683469 67.015726 6.810894 2.462084 25.456795 -7.356341 -0.000003 -16.371566 176.369008 4.120428 -0.000004 -0.000004 -0.937780 -18.945625 1.726252 1.371449 -0.000001 -0.000002 -0.316438 71.036426 -6.833093 -2.143054 25.456959 7.355613 -0.000000 
60.976898 -17.282820 98.083405 -3.631821 1.109412 104.640411 0.033575 0.219030 0.915955 4.059191 0.440967 1.838188 5.703927 0.462720 1.828492 8.977458 28.672332 -11.496358 3.717528 -31.912526 -9.596136 1.707459 -32.039656 6.293671 124.123539 2.072532 135.646655 0.000001 -0.000002 -0.000004 28.939033 10.265877 0.314776 -0.000014 0.000003 -3.000001 -5.000042 -7.998914 -0.000005 -27.779568 67.216882 32.366596 -68.781057 94.505468 61.445270 0.000001 -0.000009 0.000005 45.071817 11.865558 -3.451083 -0.000008 -0.000001 3.000012 -5.000148 7.998956 -0.000139 0.335544 -178.309028 7.442201 -179.999991 0.000005 -1.664007 140.945257 -5.939725 -3.674419 -0.000001 -0.000002 0.682674 67.028198 6.811345 2.460105 25.456188 -7.356340 0.000322 -16.331793 176.427789 4.121386 -0.000003 -0.000004 -0.937209 -18.907487 1.753176 1.372977 -0.000001 -0.000002 -0.314349 71.011879 -6.833007 -2.146244 25.456957 7.355612 0.000001 
60.982300 -17.252817 98.075600 -3.585357 1.112231 104.647685 0.033557 0.217894 0.916341 4.059309 0.439129 1.838685 5.704045 0.460564 1.829017 9.028812 28.636222 -11.508245 3.671087 -31.869516 -9.610599 1.687701 -32.097012 6.255772 124.052778 2.035068 135.631533 -0.000000 -0.000001 -0.000004 28.979690 10.278359 0.318886 -0.000014 -0.000001 -3.000002 -5.000043 -7.998916 -0.000004 -27.722597 67.209662 32.302748 -68.958437 94.397756 61.470473 0.000002 -0.000009 0.000004 44.793214 11.891591 -3.439073 -0.000008 -0.000001 3.000010 -5.000147 7.998954 -0.000142 0.343443 -178.288032 7.443661 -179.999991 0.000005 -1.662995 140.910546 -5.926672 -3.671858 -0.000004 -0.000002 0.681699 67.045294 6.811935 2.457565 25.454372 -7.356349 0.001193 -16.280229 176.486378 4.115670 -0.000003 -0.000004 -0.936339 -18.851423 1.788109 1.374438 -0.000001 -0.000003 -0.311391 70.976881 -6.832869 -2.150468 25.456953 7.355613 -0.000000 
60.989697 -17.235815 98.064590 -3.538692 1.114424 104.653907 0.033601 0.216823 0.916817 4.059659 0.437579 1.839293 5.704393 0.458628 1.829689 9.076343 28.599066 -11.519246 3.627896 -31.825188 -9.624457 1.667302 -32.160369 6.215836 123.976198 1.995181 135.609212 -0.000003 0.000001 0.000001 29.016580 10.289697 0.323624 -0.000015 0.000002 -3.000001 -5.000042 -7.998916 -0.000004 -27.667481 67.200660 32.241003 -69.105306 94.292961 61.464005 0.000002 -0.000007 0.000001 44.521161 11.914435 -3.425690 -0.000005 0.000000 3.000012 -5.000149 7.998955 -0.000139 0.349523 -178.266025 7.445515 -179.999991 0.000005 -1.661998 140.869086 -5.914608 -3.670223 -0.000002 -0.000002 0.680567 67.066420 6.812617 2.454396 25.451747 -7.356364 0.002499 -16.218672 176.544831 4.104299 -0.000004 -0.000004 -0.935217 -18.780134 1.829867 1.375779 -0.000000 -0.000002 -0.307696 70.932860 -6.832780 -2.155457 25.456953 7.355613 -0.000000 
60.989799 -17.213213 98.060303 -3.491873 1.116093 104.658101 0.033700 0.215813 0.917350 4.060189 0.436284 1.839952 5.704924 0.456890 1.830447 9.120423 28.560940 -11.529347 3.587559 -31.779371 -9.637627 1.646307 -32.228733 6.174106 123.894482 1.953499 135.580976 -0.000002 0.000001 -0.000001 29.050400 10.299908 0.328876 -0.000015 0.000003 -3.000001 -5.000043 -7.998911 -0.000003 -27.613630 67.190087 32.180843 -69.222027 94.191089 61.426774 0.000001 -0.000009 0.000006 44.255299 11.934314 -3.411151 -0.000005 -0.000003 3.000010 -5.000145 7.998954 -0.000138 0.354091 -178.241040 7.447670 -179.999991 0.000005 -1.660005 140.822013 -5.902099 -3.668162 -0.000001 -0.000003 0.679304 67.090681 6.813338 2.451039 25.448511 -7.356379 0.004100 -16.148621 176.603188 4.088263 -0.000003 -0.000004 -0.933884 -18.696205 1.877261 1.376950 -0.000001 -0.000002 -0.303392 70.881490 -6.832682 -2.161294 25.456959 7.355617 -0.000001 
60.998005 -17.191216 98.048599 -3.444996 1.117360 104.662260 0.033828 0.214861 0.917920 4.060857 0.435210 1.840641 5.705593 0.455332 1.831268 9.161399 28.521823 -11.538531 3.549726 -31.732164 -9.650002 1.624741 -32.301296 6.130798 123.808298 1.910081 135.547085 0.000001 -0.000001 -0.000001 29.081556 10.309040 0.334579 -0.000015 -0.000001 -3.000002 -5.000041 -7.998913 -0.000006 -27.561640 67.177950 32.122800 -69.310745 94.092140 61.361142 0.000001 -0.000008 0.000006 43.994847 11.951410 -3.395435 -0.000006 -0.000000 3.000014 -5.000143 7.998955 -0.000138 0.357447 -178.216028 7.449978 -179.999991 0.000004 -1.658993 140.770745 -5.889246 -3.666514 -0.000002 -0.000002 0.677936 67.117482 6.814172 2.447248 25.444881 -7.356390 0.005856 -16.072108 176.660507 4.068850 -0.000004 -0.000004 -0.932381 -18.602329 1.929087 1.377896 -0.000001 -0.000002 -0.298603 70.824301 -6.832608 -2.167492 25.456955 7.355617 -0.000001 
